<svg width="120" height="120" viewBox="0 0 120 120" fill="none" xmlns="http://www.w3.org/2000/svg">
<path d="M107.143 0H12.8571C5.75893 0 0 5.75893 0 12.8571V107.143C0 114.241 5.75893 120 12.8571 120H107.143C114.241 120 120 114.241 120 107.143V12.8571C120 5.75893 114.241 0 107.143 0ZM65.3036 93.5893C65.3036 105.268 58.4464 110.598 48.4554 110.598C39.4286 110.598 34.2054 105.937 31.5268 100.286L40.7143 94.7411C42.4821 97.875 44.0893 100.527 47.9732 100.527C51.6696 100.527 54.0268 99.0804 54.0268 93.4286V55.0982H65.3036V93.5893ZM91.9821 110.598C81.5089 110.598 74.7321 105.616 71.4375 99.0804L80.625 93.7768C83.0357 97.7143 86.1964 100.634 91.7411 100.634C96.4018 100.634 99.4018 98.3036 99.4018 95.0625C99.4018 91.2054 96.3482 89.8393 91.1786 87.5625L88.3661 86.3571C80.2232 82.9018 74.8393 78.5357 74.8393 69.3482C74.8393 60.8839 81.2946 54.4554 91.3393 54.4554C98.5179 54.4554 103.661 56.9464 107.357 63.4821L98.5714 69.1071C96.6429 65.6518 94.5536 64.2857 91.3125 64.2857C88.0179 64.2857 85.9286 66.375 85.9286 69.1071C85.9286 72.4821 88.0179 73.8482 92.8661 75.9643L95.6786 77.1696C105.268 81.2679 110.652 85.4732 110.652 94.9018C110.652 105.027 102.67 110.598 91.9821 110.598Z" fill="#F79859"/>
</svg>
