<svg width="137" height="120" viewBox="0 0 137 120" fill="none" xmlns="http://www.w3.org/2000/svg">
<path d="M111.901 38.8874C110.456 38.4053 109.011 37.95 107.566 37.5214C107.807 36.5304 108.021 35.5394 108.235 34.5484C111.527 18.5849 109.359 5.75527 102.054 1.52335C95.017 -2.52107 83.5379 1.68406 71.925 11.8085C70.7744 12.7995 69.6506 13.8441 68.5803 14.8887C67.8578 14.1923 67.1086 13.4959 66.3594 12.8263C54.1846 2.00547 41.983 -2.54786 34.6781 1.71084C27.6676 5.78206 25.5805 17.8618 28.5238 32.9681C28.8182 34.468 29.1393 35.9412 29.5139 37.4411C27.8014 37.9232 26.1156 38.4589 24.5369 39.0213C10.2482 43.9764 0 51.7975 0 59.8863C0 68.243 10.9172 76.6265 25.7678 81.7155C26.9719 82.1173 28.176 82.519 29.4068 82.8672C29.0055 84.4743 28.6576 86.0546 28.3365 87.6884C25.527 102.554 27.7211 114.339 34.7316 118.383C41.9562 122.562 54.1043 118.276 65.9313 107.911C66.8678 107.08 67.8043 106.223 68.7408 105.312C69.9182 106.464 71.149 107.562 72.3799 108.634C83.8322 118.49 95.1508 122.481 102.135 118.437C109.359 114.258 111.714 101.589 108.663 86.1617C108.423 84.9832 108.155 83.7779 107.861 82.5458C108.717 82.3048 109.546 82.0369 110.376 81.7691C125.815 76.6533 137 68.3769 137 59.8863C137 51.7707 126.457 43.8961 111.901 38.8874ZM75.6979 16.1476C85.6518 7.46947 94.9367 4.06786 99.1645 6.50523C103.687 9.10331 105.426 19.6027 102.589 33.3967C102.402 34.3073 102.215 35.1912 101.974 36.0751C96.0338 34.7359 90.0133 33.7716 83.966 33.2359C80.4875 28.2541 76.6879 23.4865 72.5672 19.0135C73.6107 18.0225 74.6275 17.085 75.6979 16.1476ZM44.7391 73.7873C46.1037 76.1176 47.4951 78.4478 48.9668 80.7245C44.7926 80.2691 40.6451 79.5995 36.5512 78.7157C37.7285 74.8587 39.2002 70.8679 40.9127 66.7966C42.1436 69.1537 43.4012 71.4839 44.7391 73.7873ZM36.6314 41.5659C40.4846 40.7088 44.5785 40.0124 48.833 39.4767C47.4148 41.6998 46.0234 43.9764 44.7123 46.2799C43.4012 48.5566 42.1168 50.8868 40.9127 53.2438C39.227 49.2529 37.8088 45.3424 36.6314 41.5659ZM43.9631 60.0202C45.7291 56.324 47.6557 52.7081 49.6893 49.1458C51.7229 45.5835 53.917 42.1283 56.2182 38.7267C60.2318 38.4321 64.3258 38.2714 68.5 38.2714C72.6742 38.2714 76.7949 38.4321 80.7818 38.7267C83.0563 42.1015 85.2236 45.5567 87.284 49.0922C89.3443 52.6278 91.2709 56.2436 93.0904 59.9131C91.2977 63.6093 89.3711 67.252 87.3107 70.8411C85.2771 74.4034 83.1098 77.8586 80.8354 81.2869C76.8484 81.5816 72.701 81.7155 68.5 81.7155C64.299 81.7155 60.2318 81.5816 56.2984 81.3405C53.9705 77.9389 51.7764 74.457 49.716 70.8946C47.6557 67.3323 45.7559 63.7165 43.9631 60.0202ZM92.2877 73.7338C93.6523 71.3768 94.9367 68.993 96.1943 66.5824C97.9068 70.4661 99.4053 74.4034 100.716 78.4478C96.5689 79.3853 92.368 80.1084 88.1402 80.5906C89.5852 78.3407 90.9498 76.0372 92.2877 73.7338ZM96.1408 53.2438C94.8832 50.8868 93.5988 48.5298 92.2609 46.2263C90.9498 43.9497 89.5852 41.6998 88.167 39.4767C92.475 40.0124 96.5957 40.7355 100.449 41.6194C99.218 45.5835 97.773 49.4404 96.1408 53.2438ZM68.5535 23.1115C71.3631 26.1649 74.0121 29.379 76.4738 32.7003C71.1758 32.4592 65.851 32.4592 60.5529 32.7003C63.1752 29.2451 65.8777 26.031 68.5535 23.1115ZM37.5145 6.69272C42.0098 4.06786 51.9904 7.81766 62.5063 17.1386C63.1752 17.7278 63.8441 18.3707 64.5398 19.0135C60.3924 23.4865 56.566 28.2541 53.0607 33.2359C47.0135 33.7716 41.0197 34.7091 35.0795 36.0215C34.7316 34.6555 34.4373 33.2627 34.143 31.8699C31.6277 18.9064 33.2867 9.13009 37.5145 6.69272ZM30.9588 77.2961C29.835 76.9747 28.7379 76.6265 27.6408 76.2515C21.9414 74.457 15.466 71.6178 10.7834 67.8948C8.08086 66.0199 6.26133 63.1272 5.75293 59.8863C5.75293 54.9848 14.2084 48.7173 26.41 44.4586C27.9352 43.9229 29.4871 43.4408 31.0391 42.9854C32.8586 48.7976 35.0527 54.5027 37.5947 60.0202C35.026 65.6181 32.8051 71.4035 30.9588 77.2961ZM62.1584 103.545C57.7434 107.589 52.6326 110.803 47.067 113C44.0969 114.419 40.6719 114.553 37.6215 113.348C33.367 110.884 31.601 101.429 34.0092 88.7062C34.3035 87.2063 34.6246 85.7064 34.9992 84.2332C40.993 85.5189 47.0402 86.4027 53.1678 86.8581C56.6998 91.8667 60.5797 96.6611 64.7271 101.161C63.8709 101.991 63.0146 102.795 62.1584 103.545ZM68.7141 97.0361C65.9848 94.0898 63.2555 90.8222 60.6064 87.3134C63.1752 87.4205 65.8242 87.4741 68.5 87.4741C71.2561 87.4741 73.9586 87.4205 76.6344 87.2866C74.1727 90.6882 71.5236 93.9291 68.7141 97.0361ZM103.687 105.071C103.446 108.339 101.84 111.392 99.2715 113.455C95.017 115.919 85.9461 112.705 76.1527 104.295C75.0289 103.33 73.9051 102.286 72.7545 101.214C76.8484 96.6879 80.6213 91.8935 84.0463 86.8581C90.1738 86.3492 96.2746 85.4117 102.295 84.0457C102.563 85.1439 102.804 86.242 103.018 87.3134C104.329 93.0988 104.543 99.1253 103.687 105.071ZM108.556 76.2783C107.807 76.5193 107.058 76.7604 106.282 76.9747C104.409 71.1357 102.108 65.4307 99.4588 59.8863C102.028 54.4223 104.195 48.7976 106.014 43.039C107.406 43.4408 108.744 43.8693 110.028 44.2979C122.497 48.5833 131.247 54.958 131.247 59.8327C131.247 65.0825 121.909 71.8589 108.556 76.2783ZM68.5 72.2606C75.2697 72.2606 80.7551 66.7699 80.7551 59.9934C80.7551 53.217 75.2697 47.7262 68.5 47.7262C61.7303 47.7262 56.2449 53.217 56.2449 59.9934C56.2449 66.7699 61.7303 72.2606 68.5 72.2606Z" fill="#F79859"/>
</svg>
