<svg width="160" height="120" viewBox="0 0 160 120" fill="none" xmlns="http://www.w3.org/2000/svg">
<path d="M75.46 90.7215C75.385 90.8715 75.31 90.9915 75.46 90.7215V90.7215ZM137.743 68.9733C132.715 68.9717 127.754 70.1264 123.243 72.348C121.768 69.3733 120.243 66.7735 119.993 64.8237C119.693 62.5488 119.368 61.199 119.718 58.4992C120.068 55.7994 121.643 51.9747 121.618 51.6997C121.593 51.4248 121.268 50.0499 118.043 50.0249C114.818 49.9999 112.043 50.6498 111.72 51.4997C111.151 53.053 110.708 54.6497 110.395 56.2744C109.82 59.1991 103.948 69.6483 100.623 75.0978C99.5228 72.973 98.5978 71.0982 98.3978 69.5983C98.0978 67.3235 97.7728 65.9736 98.1227 63.2738C98.4728 60.574 100.048 56.7493 100.023 56.4743C99.9978 56.1994 99.6728 54.8245 96.4502 54.7995C93.2277 54.7745 90.4502 55.4244 90.1252 56.2744C89.8002 57.1243 89.4502 59.1241 88.8001 61.049C88.1501 62.9738 80.3275 80.3724 78.28 84.897C77.23 87.1968 76.33 89.0467 75.68 90.2966C75.58 90.4966 75.505 90.6216 75.455 90.7215C75.53 90.5966 75.58 90.4716 75.58 90.5216C75.03 91.5965 74.705 92.1964 74.705 92.1964V92.2214C74.28 93.0214 73.805 93.7463 73.58 93.7463C73.43 93.7463 73.105 91.6465 73.655 88.7717C74.83 82.7222 77.605 73.323 77.58 72.998C77.555 72.823 78.105 71.1981 75.755 70.3232C73.48 69.4983 72.655 70.8732 72.455 70.8732C72.255 70.8732 72.1049 71.3731 72.1049 71.3731C72.1049 71.3731 74.63 60.774 67.2574 60.774C62.6573 60.774 56.2573 65.8236 53.1122 70.3982C51.1372 71.4731 46.8622 73.7979 42.3621 76.2727C40.6371 77.2226 38.8621 78.1976 37.187 79.1225C37.062 78.9975 36.962 78.8725 36.837 78.7475C27.8894 69.1983 11.3692 62.4489 12.0693 49.6249C12.3193 44.9503 13.9443 32.6763 43.8371 17.7775C68.3374 5.57849 87.9251 8.92821 91.2977 16.3776C96.1477 27.0017 80.8251 46.7751 55.3823 49.6249C45.6846 50.6998 40.5871 46.9501 39.3121 45.5502C37.9871 44.0753 37.787 44.0004 37.287 44.2753C36.462 44.7253 36.987 46.0252 37.287 46.8001C38.037 48.775 41.1621 52.2747 46.4846 54.0245C51.1597 55.5494 62.5298 56.3993 76.2775 51.0748C91.7227 45.1253 103.745 28.5516 100.22 14.6777C96.6302 0.578892 73.25 -4.04573 51.1422 3.80363C37.9696 8.47825 23.7244 15.8277 13.4768 25.4019C1.30412 36.8009 -0.643398 46.7251 0.156611 50.8748C3.00414 65.5986 23.2994 75.1978 31.422 82.2972C31.022 82.5222 30.647 82.7222 30.297 82.9222C26.2244 84.947 10.7517 93.0464 6.87919 101.596C2.50414 111.295 7.6042 118.244 10.9517 119.194C21.3994 122.094 32.097 116.869 37.8446 108.295C43.5921 99.7208 42.8946 88.5217 40.2446 83.4221C40.2196 83.3471 40.1696 83.2972 40.1446 83.2222C41.1946 82.5972 42.2696 81.9723 43.3446 81.3473C45.4171 80.1224 47.4422 78.9975 49.2172 78.0226C48.2172 80.7224 47.4922 83.9721 47.1172 88.6717C46.6672 94.1713 48.9422 101.296 51.8922 104.095C53.1922 105.32 54.7647 105.345 55.7398 105.345C59.1898 105.345 60.7398 102.496 62.4623 99.0959C64.5874 94.9462 66.4624 90.1216 66.4624 90.1216C66.4624 90.1216 64.1124 103.171 70.5374 103.171C72.885 103.171 75.235 100.146 76.2875 98.5959V98.6209C76.2875 98.6209 76.3375 98.5209 76.4625 98.3209C76.7125 97.946 76.8375 97.721 76.8375 97.721V97.646C77.7875 96.0211 79.8625 92.2964 82.9851 86.1469C87.0351 78.1976 90.9077 68.2734 90.9077 68.2734C91.2819 70.455 91.7997 72.6095 92.4577 74.7229C93.1577 77.0977 94.6327 79.6974 95.8077 82.2222C94.8577 83.5221 94.2827 84.2721 94.2827 84.2721C94.2845 84.2913 94.2934 84.3091 94.3077 84.3221C93.5577 85.322 92.7077 86.3969 91.8327 87.4468C88.6351 91.2465 84.8326 95.5962 84.3326 96.8461C83.7326 98.3209 83.8826 99.4208 85.0326 100.271C85.8826 100.921 87.3826 101.021 88.9551 100.896C91.8302 100.696 93.8552 99.9958 94.8302 99.5458C96.6277 98.9013 98.3265 98.0095 99.8778 96.896C103.003 94.5962 104.903 91.2965 104.728 86.9469C104.628 84.5471 103.853 82.1472 102.903 79.8974C103.178 79.4975 103.478 79.0725 103.753 78.6475C108.7 71.4231 112.525 63.4938 112.525 63.4938C112.9 65.6753 113.417 67.8298 114.075 69.9432C114.675 71.9681 115.848 74.1929 116.923 76.3677C112.275 80.1424 109.4 84.5171 108.4 87.3918C106.55 92.7164 108 95.1162 110.725 95.6661C111.95 95.9161 113.7 95.3412 115 94.7912C116.931 94.1482 118.752 93.2123 120.398 92.0164C123.523 89.7166 126.546 86.4919 126.346 82.1172C126.271 80.1424 125.721 78.1676 124.996 76.2677C128.921 74.6179 134.018 73.7179 140.518 74.4679C154.438 76.0927 157.163 84.792 156.638 88.4167C156.113 92.0414 153.188 94.0663 152.213 94.6662C151.238 95.2662 150.938 95.4912 151.013 95.9411C151.138 96.5911 151.588 96.5661 152.413 96.4161C153.563 96.2161 159.711 93.4663 159.986 86.7419C160.386 78.2426 152.213 68.8933 137.736 68.9683L137.743 68.9733ZM30.447 105.145C25.8494 110.17 19.3993 112.07 16.6268 110.47C13.6518 108.74 14.8268 101.346 20.4993 95.9911C23.9494 92.7414 28.3969 89.7416 31.347 87.8918C32.022 87.4918 32.997 86.8919 34.197 86.1669C34.397 86.0419 34.497 85.9919 34.497 85.9919C34.722 85.8419 34.972 85.7169 35.222 85.567C37.2945 93.1663 35.297 99.8658 30.447 105.14V105.145ZM64.0374 82.2972C62.4373 86.2219 59.0648 96.2211 57.0148 95.6961C55.2648 95.2462 54.1897 87.6218 56.6648 80.1224C57.9148 76.3477 60.5648 71.8481 62.1398 70.0982C64.6624 67.2735 67.4374 66.3735 68.0874 67.4984C68.9624 68.9733 65.0374 79.8474 64.0374 82.2972ZM91.7877 95.5462C91.1127 95.8961 90.4877 96.1211 90.1877 95.9461C89.9627 95.8211 90.4627 95.3462 90.4627 95.3462C90.4627 95.3462 93.9377 91.6215 95.3127 89.9216C96.1127 88.9217 97.0377 87.7468 98.0353 86.4469C98.0353 86.5719 98.0602 86.6969 98.0602 86.8469C98.0277 91.3215 93.7302 94.3463 91.7802 95.5462H91.7877ZM113.183 90.6716C112.683 90.3216 112.758 89.1467 114.433 85.497C115.083 84.0721 116.58 81.6723 119.183 79.3725C119.478 80.243 119.638 81.1534 119.658 82.0723C119.633 87.6968 115.608 89.7966 113.185 90.6716H113.183Z" fill="#F79859"/>
</svg>
