<svg width="105" height="105" viewBox="0 0 105 105" fill="none" xmlns="http://www.w3.org/2000/svg">
<path d="M99.6835 0.4375H5.3165C2.6219 0.4375 0.4375 2.6219 0.4375 5.3165V99.6835C0.4375 102.378 2.6219 104.562 5.3165 104.562H99.6835C102.378 104.562 104.562 102.378 104.562 99.6835V5.3165C104.562 2.6219 102.378 0.4375 99.6835 0.4375Z" fill="#EBEBEB"/>
<path fill-rule="evenodd" clip-rule="evenodd" d="M60.8486 81.354V92.7632C62.9215 93.7863 65.1307 94.5064 67.4084 94.9015C70.0406 95.3874 72.7123 95.6264 75.3889 95.6155C77.9975 95.6279 80.6002 95.3648 83.1536 94.8308C85.4462 94.3675 87.6335 93.4851 89.6057 92.2277C91.4365 91.0458 92.9455 89.4282 93.9975 87.5197C95.8815 83.5679 96.13 79.0323 94.6892 74.8983C94.0811 73.3524 93.1752 71.941 92.0228 70.7445C90.7859 69.4721 89.3808 68.3749 87.8467 67.4831C86.0804 66.4486 84.2453 65.5366 82.3541 64.7535C80.8666 64.1362 79.5278 63.5363 78.3378 62.9537C77.2809 62.4476 76.2694 61.8517 75.3145 61.1724C74.5666 60.6481 73.917 59.996 73.3956 59.2461C72.9451 58.5652 72.7106 57.7642 72.7225 56.9479C72.7126 56.1966 72.922 55.4587 73.325 54.8245C73.7627 54.1608 74.3466 53.6061 75.0319 53.2031C75.8696 52.7099 76.7812 52.3546 77.7317 52.1507C78.8987 51.8915 80.0915 51.7667 81.2868 51.7788C82.2921 51.7823 83.2961 51.8544 84.2916 51.9945C85.3666 52.1399 86.4303 52.3598 87.4748 52.6527C88.5373 52.9472 89.5764 53.3201 90.5837 53.7684C91.5611 54.2041 92.496 54.7294 93.3765 55.3377V44.6909C91.5435 43.9974 89.6427 43.4989 87.7054 43.2034C85.3659 42.863 83.0038 42.7026 80.6398 42.7237C78.0557 42.7098 75.4791 43.0031 72.9642 43.5976C70.6911 44.117 68.5297 45.0403 66.5829 46.3234C64.7744 47.5282 63.2811 49.149 62.2282 51.05C61.1125 53.161 60.5604 55.5242 60.6254 57.911C60.543 61.0675 61.5827 64.1508 63.5595 66.6129C65.9849 69.3428 69.0431 71.4357 72.4659 72.708C74.0278 73.3525 75.4843 73.9835 76.8355 74.6008C78.0545 75.1432 79.2263 75.7863 80.3385 76.5234C81.2356 77.107 82.0236 77.8433 82.6665 78.6989C83.2318 79.4749 83.5317 80.4126 83.5218 81.3726C83.5269 82.0921 83.3422 82.8001 82.9863 83.4254C82.5908 84.0973 82.035 84.6607 81.3686 85.0654C80.5347 85.5737 79.6225 85.9407 78.6688 86.1512C77.4265 86.429 76.1559 86.56 74.8831 86.5417C72.3852 86.5371 69.9073 86.0967 67.5609 85.2401C65.1096 84.3556 62.8363 83.0394 60.8486 81.354ZM41.6821 52.9502H56.5571V43.553H15.0819V52.9502H29.89V94.8011H41.6821V52.9502Z" fill="#EBEBEB"/>
</svg>
